# xmcd CD database file
# Copyright (C) 1997 Ti Kan
#
# Track frame offsets:
#  150
#  12127
#  32777
#  49450
#  62645
#  74022
#  95540
#  115300
#  134927
#  153415
#
# Disc length: 2227 seconds
#
# Revision: 1
# Processed by: cddbd v1.4b41PL1 Copyright (c) Steve Scherf et al.
# Submitted via: CDWizzard Release:4.32
#
DISCID=9508b10a
DTITLE=Shelley Jo Spady - For the Love of One
DYEAR=1900
DGENRE=
TTITLE0=Done Thang
TTITLE1=For The Love of One
TTITLE2=You Hem Me In
TTITLE3=Goodbye
TTITLE4=He Is Lovely
TTITLE5=I Want To See You All In Heaven
TTITLE6=His Is A Love
TTITLE7=Instead Of Me
TTITLE8=He Is Watching Over You
TTITLE9=It Is Finished
EXTD=
EXTT0=
EXTT1=
EXTT2=
EXTT3=
EXTT4=
EXTT5=
EXTT6=
EXTT7=
EXTT8=
EXTT9=
PLAYORDER=
